#!OML:ASF E:/inclinewalkrobotboard/Project1/Captureday1/Session1/subject1.ASF
:FULLY-SPECIFIED
:DEGREES
188
root 0 0 0 14.532840746333811 42.52399238926891 0.21239079093191293
lowerback -10.228787968612082 -4.542296987637721 -4.656211519592533
upperback -11.391325618206686 -5.633229085443931 8.79146149033298
thorax -5.463981056173385 -2.0947069876162843 12.102947260573686
lowerneck -3.0318984259317334 -9.774291699027746 -8.335241197972257
upperneck 32.789556925199975 -12.215418107197051 -0.024158525120054453
head 11.896095603080813 -6.343244100263066 -0.2153474627803016
rclavicle -4.27231271887643E-15 4.982456863334236E-15
rhumerus 159.58921867526766 6.9406657523930555 -196.65112249970966
rradius 15.481788574059522
rwrist 84.72160670887885
rhand -17.114186974941536 8.118357287507347
rfingers 7.125020000000012
rthumb 9.07671828690973 -21.757690248465458
lclavicle 3.611919080263454E-15 -2.2494493849879616E-15
lhumerus 84.89203991855082 33.46396178986936 16.160908375749635
lradius 46.347838081228595
lwrist -19.006999974763193
lhand -10.480357367452285 13.397182550855174
lfingers 7.125019999999978
lthumb 15.479678207363314 42.66014967009648
rfemur 154.56046801873873 -210.07207906185693 -183.11077877075752
rtibia 54.33852838361523
rfoot -70.81296958015598 -17.183409180709113
rtoes 60.00082879605054
lfemur -89.16058800343022 22.667875543641564 -53.93140550600103
ltibia 75.19516289432661
lfoot -7.910990022934946 32.593089717482044
ltoes 7.677698851623155
189
root 0 0 0 14.203092683414251 42.488573676164805 0.42908747331002317
lowerback -10.077135660526586 -4.5469537579901615 -4.7099602937272
upperback -11.310385916196077 -5.636286070604744 8.746349156206998
thorax -5.473305291109026 -2.0864241543709685 12.081558779978387
lowerneck -3.0484267953943176 -9.755089387765224 -8.292379129503114
upperneck 32.79361079736766 -12.183450447668395 -0.06798633007292754
head 11.894907093976704 -6.330392722397729 -0.2316313486593724
rclavicle -4.299656886228619E-15 5.095575544851884E-15
rhumerus 159.0864112857994 7.104561032172697 -197.1138843914148
rradius 15.142095625130224
rwrist 85.1733037073927
rhand -17.10134986331081 8.13359694048494
rfingers 7.125020000000012
rthumb 9.08828324448301 -21.738859850589257
lclavicle 3.834518383760755E-15 -1.7736866003554915E-15
lhumerus 84.83905300636992 33.76118563314611 16.01467066008041
lradius 45.099401574127334
lwrist -19.476197380749102
lhand -11.128630353173872 13.866795449808302
lfingers 7.125019999999974
lthumb 14.855433391456078 43.235895647811
rfemur 153.9971977160086 -209.39957472108057 -182.68851480804724
rtibia 52.75058205332351
rfoot -73.36809343958895 -15.929326596816017
rtoes 59.91488417016326
lfemur -89.15235943623952 22.635468424845456 -54.233492773276694
ltibia 75.11402115895633
lfoot -6.565611852358213 32.511116010401324
ltoes 7.13478201290722
190
root 0 0 0 13.927388856194538 42.4328660037239 0.6110429534071162
lowerback -9.953905283171633 -4.5529036483097975 -4.755873802386962
upperback -11.244601930565711 -5.641854527233461 8.709474385100535
thorax -5.481325243512778 -2.0810162236834158 12.065456612473604
lowerneck -3.063271455222612 -9.73847855394731 -8.258050138303023
upperneck 32.795107139173055 -12.156894231268504 -0.09871380184824874
head 11.89364982186078 -6.319364927420578 -0.24323208724111134
rclavicle -4.369191894399249E-15 5.2106445456067916E-15
rhumerus 158.6645124978882 7.256323707931124 -197.4441691963349
rradius 14.929229947578609
rwrist 85.44606348162714
rhand -17.087823480008975 8.15920365956187
rfingers 7.125020000000012
rthumb 9.100682176178173 -21.707606652104392
lclavicle 4.036667641946872E-15 -1.4104183252063503E-15
lhumerus 84.59613333046387 33.882761866941166 15.858426952996286
lradius 44.18636853822043
lwrist -19.834612821843773
lhand -11.613057865010807 14.225501135200997
lfingers 7.1250199999999735
lthumb 14.388816844037406 43.669447982873464
rfemur 153.78195763577014 -209.09847777862234 -182.46020903219596
rtibia 51.78892699303707
rfoot -74.96009011020264 -14.962383834123031
rtoes 59.712163728630415
lfemur -89.17389337962291 22.593399172300856 -54.49423794733349
ltibia 75.03677660358326
lfoot -5.577449692228633 32.490511921377475
ltoes 6.754668286561621
191
root 0 0 0 13.585379284182347 42.32971620009411 0.8444123844165699
lowerback -9.802939249439214 -4.5598293114434085 -4.817586234814128
upperback -11.163353028024837 -5.648445034067655 8.660601416072726
thorax -5.491431414106051 -2.0736520395494518 12.044849711367196
lowerneck -3.084630268650592 -9.715922218046645 -8.213368960435153
upperneck 32.79500112358667 -12.122310056982238 -0.13441582724630274
head 11.891551745785371 -6.304553870670262 -0.2568120802392635
rclavicle -4.4532773640321214E-15 5.3165892128798945E-15
rhumerus 158.22512856364227 7.434872232111143 -197.82541229062608
rradius 14.704056386897786
rwrist 85.71497905286982
rhand -17.068286335406572 8.183531665271728
rfingers 7.125020000000012
rthumb 9.11916164495341 -21.676135445108585
lclavicle 4.2013054107603014E-15 -1.0274791671663245E-15
lhumerus 84.27405023123578 34.060344513680604 15.685482194891907
lradius 43.084518616342265
lwrist -20.264848740650912
lhand -12.17947363013467 14.642952860314848
lfingers 7.125019999999972
lthumb 13.843049784365439 44.1758794674152
rfemur 153.60993407802798 -208.8313134572491 -182.2477797291053
rtibia 50.840917781300845
rfoot -76.39682566761597 -14.031579520143453
rtoes 59.4977208376946
lfemur -89.16577815352184 22.539550383668484 -54.80150606945131
ltibia 74.9362302902995
lfoot -4.467511120727952 32.467627423631555
ltoes 6.3152682682290875
